<svg width="300" height="196" viewBox="0 0 300 196" fill="none" xmlns="http://www.w3.org/2000/svg">
<path d="M52.266 103.394H53.5824C55.5133 103.394 56.9176 104.236 57.7952 105.921L68.3798 125.879L78.9644 105.921C79.842 104.236 81.2463 103.394 83.1771 103.394H84.4936V140.255H82.8085V104.868C82.2117 104.903 81.7202 105.061 81.334 105.342C80.983 105.623 80.6319 106.079 80.2809 106.711L68.3798 129.249L56.4787 106.711C56.1277 106.079 55.759 105.623 55.3729 105.342C55.0218 105.061 54.5479 104.903 53.9511 104.868V140.255H52.266V103.394ZM103.689 139.413C107.13 139.413 109.833 138.324 111.799 136.148L112.905 137.148C110.763 139.571 107.691 140.782 103.689 140.782C100.144 140.782 97.493 140.062 95.7377 138.623C94.0175 137.183 93.1574 134.989 93.1574 132.04V123.72C93.1574 121.017 94.035 118.893 95.7903 117.348C97.5457 115.769 99.9329 114.979 102.952 114.979C106.217 114.979 108.692 115.769 110.377 117.348C112.097 118.928 112.957 121.228 112.957 124.247C112.957 125.967 112.589 127.161 111.852 127.828C111.149 128.495 109.85 128.828 107.955 128.828H94.7371V132.04C94.7371 134.533 95.4744 136.394 96.9488 137.622C98.4233 138.816 100.67 139.413 103.689 139.413ZM102.952 116.348C100.459 116.348 98.4584 117.015 96.9488 118.349C95.4744 119.683 94.7371 121.473 94.7371 123.72V127.459H107.955C109.289 127.459 110.184 127.231 110.64 126.774C111.132 126.318 111.378 125.475 111.378 124.247C111.378 121.684 110.64 119.736 109.166 118.402C107.727 117.032 105.655 116.348 102.952 116.348ZM129.556 139.413C132.997 139.413 135.7 138.324 137.666 136.148L138.772 137.148C136.63 139.571 133.558 140.782 129.556 140.782C126.01 140.782 123.36 140.062 121.605 138.623C119.884 137.183 119.024 134.989 119.024 132.04V123.72C119.024 121.017 119.902 118.893 121.657 117.348C123.413 115.769 125.8 114.979 128.819 114.979C132.084 114.979 134.559 115.769 136.244 117.348C137.964 118.928 138.824 121.228 138.824 124.247C138.824 125.967 138.456 127.161 137.718 127.828C137.016 128.495 135.717 128.828 133.822 128.828H120.604V132.04C120.604 134.533 121.341 136.394 122.816 137.622C124.29 138.816 126.537 139.413 129.556 139.413ZM128.819 116.348C126.326 116.348 124.325 117.015 122.816 118.349C121.341 119.683 120.604 121.473 120.604 123.72V127.459H133.822C135.156 127.459 136.051 127.231 136.507 126.774C136.999 126.318 137.245 125.475 137.245 124.247C137.245 121.684 136.507 119.736 135.033 118.402C133.593 117.032 131.522 116.348 128.819 116.348ZM146.806 116.874V134.357C146.806 135.972 147.209 137.219 148.017 138.096C148.824 138.974 150 139.413 151.545 139.413H153.915V140.782H151.545C149.509 140.782 147.946 140.238 146.858 139.149C145.77 138.026 145.226 136.429 145.226 134.357V108.66C145.226 108.168 145.156 107.782 145.015 107.501C144.875 107.22 144.576 106.869 144.12 106.448L145.173 105.5C145.77 105.886 146.191 106.342 146.437 106.869C146.683 107.396 146.806 108.098 146.806 108.975V115.505H153.915V116.874H146.806Z" fill="#00A99D"/>
<path d="M183.02 131.045H167.906L165.01 140.734H158.796L168.012 110.876C168.608 108.91 169.223 107.383 169.855 106.295C170.522 105.206 171.294 104.434 172.172 103.978C173.049 103.486 174.155 103.24 175.489 103.24C176.788 103.24 177.877 103.486 178.754 103.978C179.632 104.434 180.404 105.206 181.071 106.295C181.738 107.383 182.37 108.91 182.967 110.876L192.13 140.734H185.916L183.02 131.045ZM181.651 126.411L177.069 110.981C176.858 110.279 176.63 109.77 176.385 109.454C176.174 109.138 175.876 108.98 175.489 108.98C175.103 108.98 174.787 109.138 174.541 109.454C174.296 109.77 174.068 110.279 173.857 110.981L169.276 126.411H181.651ZM210.557 115.352C212.874 115.352 214.839 115.914 216.454 117.037C218.069 118.125 219.28 119.6 220.088 121.461C220.895 123.286 221.299 125.305 221.299 127.516V129.202C221.299 131.413 220.895 133.449 220.088 135.31C219.28 137.136 218.069 138.61 216.454 139.733C214.839 140.822 212.874 141.366 210.557 141.366C208.52 141.366 206.888 141.068 205.659 140.471C204.466 139.839 203.465 138.961 202.658 137.838V152.266H196.918V122.566C196.918 121.724 196.742 121.039 196.391 120.513C196.075 119.951 195.513 119.354 194.706 118.722L198.55 115.352C199.638 115.914 200.481 116.546 201.078 117.248C201.675 117.915 202.078 118.705 202.289 119.618C204.114 116.774 206.87 115.352 210.557 115.352ZM215.559 127.516C215.559 125.305 214.98 123.479 213.821 122.04C212.663 120.565 211.048 119.828 208.977 119.828C205.747 119.828 203.641 121.425 202.658 124.62V132.098C203.641 135.293 205.747 136.89 208.977 136.89C211.048 136.89 212.663 136.17 213.821 134.731C214.98 133.256 215.559 131.413 215.559 129.202V127.516ZM240.332 115.352C242.649 115.352 244.615 115.914 246.23 117.037C247.845 118.125 249.056 119.6 249.863 121.461C250.671 123.286 251.074 125.305 251.074 127.516V129.202C251.074 131.413 250.671 133.449 249.863 135.31C249.056 137.136 247.845 138.61 246.23 139.733C244.615 140.822 242.649 141.366 240.332 141.366C238.296 141.366 236.663 141.068 235.434 140.471C234.241 139.839 233.24 138.961 232.433 137.838V152.266H226.693V122.566C226.693 121.724 226.517 121.039 226.166 120.513C225.85 119.951 225.289 119.354 224.481 118.722L228.325 115.352C229.414 115.914 230.256 116.546 230.853 117.248C231.45 117.915 231.854 118.705 232.064 119.618C233.89 116.774 236.646 115.352 240.332 115.352ZM245.334 127.516C245.334 125.305 244.755 123.479 243.597 122.04C242.438 120.565 240.823 119.828 238.752 119.828C235.522 119.828 233.416 121.425 232.433 124.62V132.098C233.416 135.293 235.522 136.89 238.752 136.89C240.823 136.89 242.438 136.17 243.597 134.731C244.755 133.256 245.334 131.413 245.334 129.202V127.516Z" fill="#00A99D"/>
<path fill-rule="evenodd" clip-rule="evenodd" d="M118.33 46.4968L121.681 49.5172V96.2668H118.33V46.4968Z" fill="#8CC63F"/>
<path fill-rule="evenodd" clip-rule="evenodd" d="M125.26 46.3269C127.81 45.4762 130.479 45.0425 133.167 45.0425H134.586C136.748 45.0425 138.891 45.445 140.906 46.2294L142.293 46.7692C143.687 47.3121 144.95 48.146 145.996 49.2154C147.893 51.1531 148.968 53.7481 148.998 56.4592L149.422 94.6397L149.441 96.3152L152.792 96.2779L152.773 94.6025L152.349 56.422C152.309 52.8475 150.891 49.4263 148.391 46.8715C147.011 45.4616 145.347 44.3622 143.509 43.6465L142.122 43.1067C139.72 42.1713 137.164 41.6914 134.586 41.6914H133.167C130.119 41.6914 127.091 42.1833 124.2 43.1481L119.929 44.5732L119.766 44.6276L122.568 47.2254L125.26 46.3269Z" fill="#00A99D"/>
<path fill-rule="evenodd" clip-rule="evenodd" d="M155.42 46.3269C157.969 45.4762 160.639 45.0425 163.326 45.0425H164.745C166.908 45.0425 169.051 45.445 171.066 46.2294L172.452 46.7692C173.847 47.3121 175.109 48.146 176.156 49.2154C178.052 51.1531 179.127 53.7481 179.158 56.4592L179.582 94.6397L179.6 96.3152L182.951 96.2779L182.933 94.6025L182.508 56.422C182.469 52.8475 181.051 49.4263 178.551 46.8715C177.171 45.4616 175.506 44.3622 173.668 43.6465L172.282 43.1067C169.879 42.1713 167.324 41.6914 164.745 41.6914H163.326C160.278 41.6914 157.25 42.1833 154.359 43.1481L150.089 44.5732L149.926 44.6276L152.727 47.2254L155.42 46.3269Z" fill="#0071BC"/>
</svg>
